<mxfile host="Electron" agent="Mozilla/5.0 (Windows NT 10.0; Win64; x64) AppleWebKit/537.36 (KHTML, like Gecko) draw.io/25.0.2 Chrome/128.0.6613.186 Electron/32.2.5 Safari/537.36" version="25.0.2">
  <diagram id="C5RBs43oDa-KdzZeNtuy" name="Page-1">
    <mxGraphModel dx="1480" dy="1071" grid="1" gridSize="10" guides="1" tooltips="1" connect="1" arrows="1" fold="1" page="1" pageScale="1" pageWidth="827" pageHeight="1169" math="0" shadow="0">
      <root>
        <mxCell id="WIyWlLk6GJQsqaUBKTNV-0" />
        <mxCell id="WIyWlLk6GJQsqaUBKTNV-1" parent="WIyWlLk6GJQsqaUBKTNV-0" />
        <mxCell id="yb9dK4N8muJozwj5BsGx-5" style="edgeStyle=orthogonalEdgeStyle;rounded=0;orthogonalLoop=1;jettySize=auto;html=1;" edge="1" parent="WIyWlLk6GJQsqaUBKTNV-1" source="yb9dK4N8muJozwj5BsGx-0" target="yb9dK4N8muJozwj5BsGx-4">
          <mxGeometry relative="1" as="geometry" />
        </mxCell>
        <mxCell id="yb9dK4N8muJozwj5BsGx-0" value="&lt;font style=&quot;font-size: 20px;&quot;&gt;Выбор растения&lt;/font&gt;" style="rounded=0;whiteSpace=wrap;html=1;" vertex="1" parent="WIyWlLk6GJQsqaUBKTNV-1">
          <mxGeometry x="460" y="130" width="120" height="70" as="geometry" />
        </mxCell>
        <mxCell id="yb9dK4N8muJozwj5BsGx-18" style="edgeStyle=orthogonalEdgeStyle;rounded=0;orthogonalLoop=1;jettySize=auto;html=1;" edge="1" parent="WIyWlLk6GJQsqaUBKTNV-1" source="yb9dK4N8muJozwj5BsGx-1" target="yb9dK4N8muJozwj5BsGx-17">
          <mxGeometry relative="1" as="geometry" />
        </mxCell>
        <mxCell id="yb9dK4N8muJozwj5BsGx-1" value="&lt;font style=&quot;font-size: 16px;&quot;&gt;Вывод инструкций к лечению&lt;/font&gt;" style="shape=parallelogram;perimeter=parallelogramPerimeter;whiteSpace=wrap;html=1;fixedSize=1;" vertex="1" parent="WIyWlLk6GJQsqaUBKTNV-1">
          <mxGeometry x="460" y="830" width="120" height="70" as="geometry" />
        </mxCell>
        <mxCell id="yb9dK4N8muJozwj5BsGx-3" style="edgeStyle=orthogonalEdgeStyle;rounded=0;orthogonalLoop=1;jettySize=auto;html=1;" edge="1" parent="WIyWlLk6GJQsqaUBKTNV-1" source="yb9dK4N8muJozwj5BsGx-2" target="yb9dK4N8muJozwj5BsGx-0">
          <mxGeometry relative="1" as="geometry" />
        </mxCell>
        <mxCell id="yb9dK4N8muJozwj5BsGx-2" value="&lt;font style=&quot;font-size: 20px;&quot;&gt;Начало&lt;/font&gt;" style="rounded=1;whiteSpace=wrap;html=1;arcSize=50;" vertex="1" parent="WIyWlLk6GJQsqaUBKTNV-1">
          <mxGeometry x="460" y="40" width="120" height="60" as="geometry" />
        </mxCell>
        <mxCell id="yb9dK4N8muJozwj5BsGx-7" style="edgeStyle=orthogonalEdgeStyle;rounded=0;orthogonalLoop=1;jettySize=auto;html=1;" edge="1" parent="WIyWlLk6GJQsqaUBKTNV-1" source="yb9dK4N8muJozwj5BsGx-4" target="yb9dK4N8muJozwj5BsGx-6">
          <mxGeometry relative="1" as="geometry" />
        </mxCell>
        <mxCell id="yb9dK4N8muJozwj5BsGx-4" value="&lt;font style=&quot;font-size: 17px;&quot;&gt;Сортировка совместимых болезней&lt;/font&gt;" style="rounded=0;whiteSpace=wrap;html=1;" vertex="1" parent="WIyWlLk6GJQsqaUBKTNV-1">
          <mxGeometry x="460" y="230" width="120" height="70" as="geometry" />
        </mxCell>
        <mxCell id="yb9dK4N8muJozwj5BsGx-6" value="&lt;font style=&quot;font-size: 20px;&quot;&gt;Выбор растения&lt;/font&gt;" style="rounded=0;whiteSpace=wrap;html=1;" vertex="1" parent="WIyWlLk6GJQsqaUBKTNV-1">
          <mxGeometry x="460" y="330" width="120" height="70" as="geometry" />
        </mxCell>
        <mxCell id="yb9dK4N8muJozwj5BsGx-8" style="edgeStyle=orthogonalEdgeStyle;rounded=0;orthogonalLoop=1;jettySize=auto;html=1;" edge="1" target="yb9dK4N8muJozwj5BsGx-10" parent="WIyWlLk6GJQsqaUBKTNV-1" source="yb9dK4N8muJozwj5BsGx-6">
          <mxGeometry relative="1" as="geometry">
            <mxPoint x="520" y="410" as="sourcePoint" />
          </mxGeometry>
        </mxCell>
        <mxCell id="yb9dK4N8muJozwj5BsGx-9" style="edgeStyle=orthogonalEdgeStyle;rounded=0;orthogonalLoop=1;jettySize=auto;html=1;" edge="1" source="yb9dK4N8muJozwj5BsGx-10" target="yb9dK4N8muJozwj5BsGx-11" parent="WIyWlLk6GJQsqaUBKTNV-1">
          <mxGeometry relative="1" as="geometry" />
        </mxCell>
        <mxCell id="yb9dK4N8muJozwj5BsGx-10" value="&lt;font style=&quot;font-size: 17px;&quot;&gt;Сортировка совместимых лекарств&lt;/font&gt;" style="rounded=0;whiteSpace=wrap;html=1;" vertex="1" parent="WIyWlLk6GJQsqaUBKTNV-1">
          <mxGeometry x="460" y="430" width="120" height="70" as="geometry" />
        </mxCell>
        <mxCell id="yb9dK4N8muJozwj5BsGx-13" style="edgeStyle=orthogonalEdgeStyle;rounded=0;orthogonalLoop=1;jettySize=auto;html=1;" edge="1" parent="WIyWlLk6GJQsqaUBKTNV-1" source="yb9dK4N8muJozwj5BsGx-11" target="yb9dK4N8muJozwj5BsGx-12">
          <mxGeometry relative="1" as="geometry" />
        </mxCell>
        <mxCell id="yb9dK4N8muJozwj5BsGx-11" value="&lt;font style=&quot;font-size: 20px;&quot;&gt;Выбор лекарства и дозировки&lt;/font&gt;" style="rounded=0;whiteSpace=wrap;html=1;" vertex="1" parent="WIyWlLk6GJQsqaUBKTNV-1">
          <mxGeometry x="460" y="530" width="120" height="70" as="geometry" />
        </mxCell>
        <mxCell id="yb9dK4N8muJozwj5BsGx-15" style="edgeStyle=orthogonalEdgeStyle;rounded=0;orthogonalLoop=1;jettySize=auto;html=1;" edge="1" parent="WIyWlLk6GJQsqaUBKTNV-1" source="yb9dK4N8muJozwj5BsGx-12" target="yb9dK4N8muJozwj5BsGx-14">
          <mxGeometry relative="1" as="geometry" />
        </mxCell>
        <mxCell id="yb9dK4N8muJozwj5BsGx-12" value="&lt;font style=&quot;font-size: 20px;&quot;&gt;Рассчёт зон поражения&lt;/font&gt;" style="rounded=0;whiteSpace=wrap;html=1;" vertex="1" parent="WIyWlLk6GJQsqaUBKTNV-1">
          <mxGeometry x="460" y="630" width="120" height="70" as="geometry" />
        </mxCell>
        <mxCell id="yb9dK4N8muJozwj5BsGx-16" style="edgeStyle=orthogonalEdgeStyle;rounded=0;orthogonalLoop=1;jettySize=auto;html=1;" edge="1" parent="WIyWlLk6GJQsqaUBKTNV-1" source="yb9dK4N8muJozwj5BsGx-14" target="yb9dK4N8muJozwj5BsGx-1">
          <mxGeometry relative="1" as="geometry" />
        </mxCell>
        <mxCell id="yb9dK4N8muJozwj5BsGx-14" value="&lt;font style=&quot;font-size: 20px;&quot;&gt;Рассчёт смеси препарата&lt;/font&gt;" style="rounded=0;whiteSpace=wrap;html=1;" vertex="1" parent="WIyWlLk6GJQsqaUBKTNV-1">
          <mxGeometry x="460" y="730" width="120" height="70" as="geometry" />
        </mxCell>
        <mxCell id="yb9dK4N8muJozwj5BsGx-17" value="&lt;font style=&quot;font-size: 20px;&quot;&gt;Конец&lt;/font&gt;" style="rounded=1;whiteSpace=wrap;html=1;arcSize=50;" vertex="1" parent="WIyWlLk6GJQsqaUBKTNV-1">
          <mxGeometry x="460" y="930" width="120" height="60" as="geometry" />
        </mxCell>
      </root>
    </mxGraphModel>
  </diagram>
</mxfile>
